PathFileType	4	(X/Y/Z)	S01_0006_Gait_markers.trc
DataRate	CameraRate	NumFrames	NumMarkers	Units	OrigDataRate	OrigDataStartFrame	OrigNumFrames
250.000000	250.000000	4	54	mm	250.000000	78	314
Frame#	Time	HEAD_ANT			R_HEAD			L_HEAD			C7			R_BACK			L_BACK			STERNUM			R_ACROMION			R_HUM_PROX			R_HUM_ANT			R_HUM_POST			R_ELBOW_LAT			R_ELBOW_MED			R_FOREARM			R_WIRST_LAT			R_WRITS_MED			R_HAND			L_ACROMION			L_HUM_PROX			L_HUM_ANT			L_HUM_POST			L_ELBOW_LAT			L_ELBOW_MED			L_FOREARM			L_WRIST_LAT			L_WIRST_MED			L_HAND			R_ILIAC			SACRUM			L_ILIAC			R_GTROCH			R_THIGH__1			R_THIGH_2			R_THIGH_3			R_THIGH_4			R_SHANK_1			R_SHANK_2			R_SHANK_3			R_SHANK_4			R_HEEL			R_FOOT_LAT			R_FOOT_MED			L_GTROCH			L_THIGH_1			L_THIGH_2			L_THIGH_3			L_THIGH_4			L_SHANK_1			L_SHANK_2			L_SHANK_3			L_SHANK_4			L_HEEL			L_FOOT_LAT			L_FOOT_MED			
		X1	Y1	Z1	X2	Y2	Z2	X3	Y3	Z3	X4	Y4	Z4	X5	Y5	Z5	X6	Y6	Z6	X7	Y7	Z7	X8	Y8	Z8	X9	Y9	Z9	X10	Y10	Z10	X11	Y11	Z11	X12	Y12	Z12	X13	Y13	Z13	X14	Y14	Z14	X15	Y15	Z15	X16	Y16	Z16	X17	Y17	Z17	X18	Y18	Z18	X19	Y19	Z19	X20	Y20	Z20	X21	Y21	Z21	X22	Y22	Z22	X23	Y23	Z23	X24	Y24	Z24	X25	Y25	Z25	X26	Y26	Z26	X27	Y27	Z27	X28	Y28	Z28	X29	Y29	Z29	X30	Y30	Z30	X31	Y31	Z31	X32	Y32	Z32	X33	Y33	Z33	X34	Y34	Z34	X35	Y35	Z35	X36	Y36	Z36	X37	Y37	Z37	X38	Y38	Z38	X39	Y39	Z39	X40	Y40	Z40	X41	Y41	Z41	X42	Y42	Z42	X43	Y43	Z43	X44	Y44	Z44	X45	Y45	Z45	X46	Y46	Z46	X47	Y47	Z47	X48	Y48	Z48	X49	Y49	Z49	X50	Y50	Z50	X51	Y51	Z51	X52	Y52	Z52	X53	Y53	Z53	X54	Y54	Z54	

79	0.312	672.8515014648438	1747.724487304688	-283.8385620117184	616.1807250976562	1692.38916015625	-208.1569366455074	611.946044921875	1704.541137695312	-355.0554199218746	475.5820617675781	1528.383422851562	-294.5449829101559	401.954345703125	1329.82373046875	-236.7719573974607	403.884765625	1336.220947265625	-373.0243225097653	651.905517578125	1366.31201171875	-298.0708923339841	548.1222534179688	1473.981567382812	-124.3984374999997	510.7723999023438	1311.8828125	-38.65813827514619	574.615966796875	1228.376708984375	-36.97017669677707	453.0819396972656	1226.38623046875	-28.66114807128879	502.1903686523438	1121.760009765625	-23.61615943908667	482.619873046875	1118.281127929688	-104.9742431640623	620.996826171875	948.5328369140625	-25.75890350341776	668.2644653320312	889.3016357421875	-66.47966003417949	601.302490234375	857.6455688476562	-31.56017684936504	678.3883666992188	800.7598876953125	-12.60678386688215	553.5114135742188	1491.81689453125	-462.6533508300778	526.2546997070312	1328.6689453125	-563.3929443359372	585.7447509765625	1246.455200195313	-567.700988769531	464.7304992675781	1253.630615234375	-588.8850097656248	521.8304443359375	1146.87060546875	-600.1762695312498	470.8453369140625	1141.988891601563	-543.8109741210935	625.0996704101562	970.5308837890626	-586.752502441406	653.2218017578125	908.0580444335939	-535.698303222656	612.277587890625	889.0465087890626	-601.4252929687498	684.45263671875	828.7050170898439	-580.6007080078123	553.6166381835938	1081.354370117188	-135.8161926269529	422.7637329101562	1054.450439453125	-304.5740661621091	542.5935668945312	1077.7265625	-479.6769409179685	509.8779296875	935.0626220703125	-122.160461425781	555.7047119140625	654.0986328125	-153.4855499267577	611.5780029296875	671.5689086914062	-152.711715698242	617.409423828125	571.060791015625	-190.721710205078	553.353759765625	574.14501953125	-176.5876159667968	527.3539428710938	349.0763854980469	-180.3124847412109	579.541748046875	324.5719299316407	-199.3133544921874	566.8699951171875	241.5424804687501	-219.4487915039062	504.950439453125	252.2711029052735	-205.0553741455078	441.6924133300781	50.54964828491217	-291.5235290527344	603.945068359375	19.0168781280518	-206.7281494140625	659.756103515625	30.46193504333503	-309.7323913574219	509.2957763671875	958.2037353515626	-486.9976806640623	662.8580322265625	686.1582031250001	-494.8922729492186	606.3878784179688	696.3765869140626	-509.9135742187498	612.0767211914062	590.9216918945314	-492.1838073730468	674.0455932617188	605.0268554687501	-483.3951110839843	521.9080200195312	366.7568359375001	-477.2250671386718	466.1999816894531	390.0335693359376	-477.6954040527343	407.0736083984375	328.0643005371095	-458.5095825195312	458.2913513183594	289.5179138183595	-452.6241455078124	257.0751342773438	222.4667205810548	-377.0157775878906	358.0093078613281	81.68764495849619	-448.8545227050781	396.1820373535156	69.99463653564462	-356.9794311523438	
80	0.316	678.4755249023438	1748.193725585938	-284.1533813476559	621.8505249023438	1693.055786132812	-208.3967742919918	617.4569091796875	1704.919555664062	-355.4203491210934	480.4739990234375	1528.955200195312	-294.9343566894528	407.4131164550781	1330.477661132812	-236.5035400390622	409.3077697753906	1336.993286132812	-372.8677673339841	657.2850341796875	1366.999145507812	-298.080139160156	553.8262329101562	1474.741088867188	-124.5642929077145	516.5208740234375	1312.679443359375	-38.54465866088838	580.5702514648438	1229.230712890625	-36.92162704467746	458.9914245605469	1226.923950195312	-28.49164772033664	508.0237731933594	1122.222045898438	-23.60256004333471	488.5100708007812	1118.798706054688	-104.911682128906	627.7815551757812	949.7305297851562	-26.06952095031717	675.17041015625	890.768798828125	-66.98474884033183	608.3428344726562	858.6344604492188	-31.88290596008282	685.9349975585938	802.2677612304688	-13.29503059387189	558.8124389648438	1492.252807617188	-462.6914367675778	531.0055541992188	1329.181762695313	-563.6427612304684	590.2479858398438	1246.397338867188	-567.5101928710935	469.1116027832031	1254.059692382813	-589.283752441406	526.019287109375	1147.246459960938	-600.551574707031	475.1193237304688	1142.408813476563	-543.8444213867185	628.94775390625	971.1777343750001	-587.6518554687498	657.5193481445312	908.5880737304689	-536.141174316406	616.2611083984375	889.5293579101564	-601.6290893554685	688.3526000976562	829.2090454101564	-581.238098144531	559.6304931640625	1081.775634765625	-135.8364105224607	427.8896179199219	1055.270874023438	-304.4765624999998	548.3704223632812	1078.54931640625	-479.4609069824216	514.7050170898438	935.7491455078125	-122.0306777954099	558.3280639648438	654.4710083007812	-153.4531402587889	614.4468994140625	671.696533203125	-152.2053833007811	618.9048461914062	570.7741088867188	-190.3319244384764	555.453125	574.674560546875	-176.5397796630858	527.9828491210938	349.4858093261719	-180.4206237792968	580.1849365234375	324.8083801269532	-199.1708679199218	567.331298828125	241.8154602050782	-219.4284057617187	505.4465942382812	252.8837127685547	-205.1819610595703	441.3479614257812	51.84504699707038	-291.4078979492188	603.9676513671875	19.01427459716801	-206.8043670654297	660.0928344726562	30.50522041320808	-309.5079956054688	515.7484130859375	959.2624511718751	-486.4940185546873	670.9682006835938	687.6517333984376	-494.4045104980467	614.5237426757812	697.9242553710939	-509.8504333496092	620.464599609375	592.3359985351564	-492.191680908203	682.7138061523438	607.0118408203126	-482.8147888183593	533.0794067382812	366.3067932128907	-476.6526794433593	477.5336608886719	388.8646545410157	-477.5806579589843	419.2289428710938	326.0245056152345	-458.3019409179687	470.7778625488281	288.4045410156251	-452.1094055175781	270.2733459472656	217.8628845214845	-376.9971008300781	374.800048828125	79.68518829345713	-448.722412109375	410.9008178710938	68.44300079345712	-356.1701354980469	
81	0.32	683.9990234375	1748.750122070312	-284.2590332031246	627.4708251953125	1693.497192382812	-208.5854492187496	623.18359375	1705.320434570312	-355.7173461914059	486.7130126953125	1529.708862304688	-294.8304748535153	412.8349304199219	1331.147338867188	-236.0672454833982	414.57861328125	1337.572387695312	-372.9285888671872	662.6170654296875	1367.5068359375	-298.4348144531247	559.4702758789062	1475.401733398438	-124.7935180664059	522.3006591796875	1313.41015625	-38.41561126708955	586.4278564453125	1229.85888671875	-36.98446273803684	464.8642883300781	1227.7353515625	-28.26457595825168	513.48828125	1122.914306640625	-23.53677940368627	494.4772644042969	1119.300659179688	-104.7607955932615	634.4619140625	950.8944091796875	-26.40127944946268	681.9876098632812	892.1757202148438	-66.18128204345683	615.5731201171875	859.769775390625	-32.25838088989239	693.3768920898438	803.9103393554688	-13.74254035949689	564.0652465820312	1492.668579101562	-462.9069519042965	535.6182250976562	1329.745971679688	-563.9052124023434	594.868408203125	1247.136840820313	-568.599670410156	473.5140686035156	1254.884155273438	-588.9593505859373	530.3169555664062	1147.745483398438	-600.8383789062498	477.63427734375	1143.713134765625	-544.5321655273435	632.8804931640625	971.5490722656251	-588.1097412109373	661.861083984375	909.0990600585939	-536.6920776367185	620.1895141601562	890.0156860351564	-601.914123535156	692.4739379882812	829.6371459960939	-581.8354492187498	564.9682006835938	1082.182983398438	-136.1168060302732	433.2267150878906	1055.800170898438	-304.5499267578123	553.4953002929688	1079.331298828125	-479.2434082031248	519.3892822265625	936.2323608398438	-121.8578720092771	560.9489135742188	654.80029296875	-153.7225646972655	617.1915283203125	671.7508544921875	-152.1820678710936	621.3189697265625	570.697265625	-190.304229736328	557.556640625	575.1983032226562	-176.4161834716796	528.6412353515625	349.9882202148438	-180.5033111572265	580.8751831054688	325.1526489257813	-198.931411743164	567.8115844726562	242.0609588623047	-219.3828887939453	505.8607788085938	253.2808685302735	-205.3741149902343	441.663818359375	52.43051910400397	-291.6912841796875	603.9676513671875	19.03007698059087	-206.8707733154297	660.325439453125	30.51553535461433	-309.3294982910156	521.6554565429688	960.1497192382814	-486.3719177246091	678.8693237304688	689.4375000000001	-493.9250183105467	622.5936889648438	698.9381713867189	-509.8236694335936	629.4910888671875	593.5504760742189	-491.9740905761718	691.1357421875	608.6412963867189	-482.5401306152343	544.5848999023438	365.947723388672	-476.3457031249999	488.7198181152344	387.2796020507814	-477.7328796386718	430.7908935546875	323.8424072265626	-457.9931945800781	483.3323364257812	286.9925537109376	-451.7441711425781	283.3392944335938	212.9805145263673	-377.0238952636718	391.5478820800781	76.90254974365244	-448.8108215332031	427.1718444824219	67.24689483642587	-355.0695190429688	
82	0.324	689.5552368164062	1749.2353515625	-284.4547119140621	633.07177734375	1694.089477539062	-208.8256378173824	628.8363037109375	1705.757690429688	-355.9072875976559	492.17041015625	1530.147094726562	-295.0129699707028	418.2911682128906	1331.882446289062	-235.6770935058591	419.9406433105469	1338.1259765625	-373.1099548339841	667.9405517578125	1368.045776367188	-298.7810363769528	565.0606689453125	1475.950927734375	-124.7950363159176	528.0587768554688	1314.082153320312	-38.24626922607393	592.291015625	1230.569458007812	-36.99551010131809	470.7791442871094	1228.41064453125	-28.03349494934055	519.6678466796875	1123.964721679688	-23.17614173889135	500.3768005371094	1120.190795898438	-104.4552230834958	641.2606201171875	952.1094360351562	-26.67342376708963	688.9889526367188	893.5740966796875	-66.77107238769511	622.6749877929688	860.8213500976562	-32.56690979003887	700.9119262695312	805.0421752929688	-14.33018207550031	569.5355834960938	1492.979736328125	-463.0960083007809	540.3988647460938	1330.105102539063	-564.1848144531247	599.2092895507812	1247.194702148438	-568.148254394531	477.8638610839844	1255.4296875	-589.2862548828123	534.3250122070312	1148.375366210938	-600.932678222656	483.77978515625	1143.68896484375	-544.1545410156248	636.8164672851562	971.9190063476564	-588.5419311523435	666.3781127929688	909.7054443359376	-537.0228881835935	624.1715087890625	890.2512207031251	-602.1656494140623	696.5350952148438	829.9799194335939	-582.2872314453123	570.659423828125	1082.568237304688	-136.1598510742185	438.3285522460938	1056.434204101562	-304.6163940429685	558.5724487304688	1080.241821289062	-479.1081848144529	523.70556640625	936.6650390625	-121.5558853149412	563.5839233398438	655.33056640625	-153.3933105468749	620.081787109375	671.8125	-151.6633148193358	623.4418334960938	570.779052734375	-190.0399475097655	559.6883544921875	575.615478515625	-176.3668212890624	529.2852783203125	350.4933471679688	-180.6624603271484	581.5641479492188	325.4334716796876	-198.7509307861327	568.3822631835938	242.4332580566407	-219.1525573730468	506.3505554199219	253.7256774902344	-205.6104583740234	441.9459838867188	53.1231765747071	-291.9764099121094	603.9536743164062	19.03140830993657	-206.9314270019531	660.6193237304688	30.50258827209479	-309.2298889160156	526.9639282226562	961.1207275390626	-486.7835388183591	686.5149536132812	690.9477539062501	-493.4584960937498	630.44384765625	700.1571044921876	-509.7590332031248	637.8623657226562	594.4930419921876	-491.5784912109374	699.6928100585938	610.3200683593751	-481.9046630859374	557.0902099609375	365.3040161132814	-476.0722656249999	499.7413940429688	386.2490539550782	-477.2659301757811	442.8910827636719	321.725799560547	-457.8893432617187	495.9087829589844	285.5923767089845	-451.3097534179687	296.8237609863281	207.9742584228516	-376.9403991699218	408.6699829101562	74.75028991699229	-448.5729675292969	444.9206848144531	65.60359954833993	-355.38623046875	
